<svg width="12" height="20" viewBox="0 0 12 20" fill="none" xmlns="http://www.w3.org/2000/svg">
<path d="M3.69592 11.2481C3.62392 11.2481 2.03992 11.2481 1.31992 11.2481C0.935918 11.2481 0.815918 11.1041 0.815918 10.7441C0.815918 9.78407 0.815918 8.80007 0.815918 7.84007C0.815918 7.45607 0.959918 7.33607 1.31992 7.33607H3.69592C3.69592 7.26407 3.69592 5.87207 3.69592 5.22407C3.69592 4.26407 3.86392 3.35207 4.34392 2.51207C4.84792 1.64807 5.56792 1.07207 6.47992 0.736072C7.07992 0.520072 7.67992 0.424072 8.32792 0.424072H10.6799C11.0159 0.424072 11.1599 0.568072 11.1599 0.904072V3.64007C11.1599 3.97607 11.0159 4.12007 10.6799 4.12007C10.0319 4.12007 9.38392 4.12007 8.73592 4.14407C8.08792 4.14407 7.75192 4.45607 7.75192 5.12807C7.72792 5.84807 7.75192 6.54407 7.75192 7.28807H10.5359C10.9199 7.28807 11.0639 7.43207 11.0639 7.81607V10.7201C11.0639 11.1041 10.9439 11.2241 10.5359 11.2241C9.67192 11.2241 7.82392 11.2241 7.75192 11.2241V19.0481C7.75192 19.4561 7.63192 19.6001 7.19992 19.6001C6.19192 19.6001 5.20792 19.6001 4.19992 19.6001C3.83992 19.6001 3.69592 19.4561 3.69592 19.0961C3.69592 16.5761 3.69592 11.3201 3.69592 11.2481Z" fill="white"/>
</svg>
