<svg width="25" height="24" viewBox="0 0 25 24" fill="none" xmlns="http://www.w3.org/2000/svg">
<path d="M21.9334 21.5999V14.5679C21.9334 11.1119 21.1894 8.47192 17.1574 8.47192C15.2134 8.47192 13.9174 9.52792 13.3894 10.5359H13.3414V8.78392H9.52539V21.5999H13.5094V15.2399C13.5094 13.5599 13.8214 11.9519 15.8854 11.9519C17.9254 11.9519 17.9494 13.8479 17.9494 15.3359V21.5759H21.9334V21.5999Z" fill="white"/>
<path d="M3.04541 8.78394H7.02941V21.5999H3.04541V8.78394Z" fill="white"/>
<path d="M5.0374 2.3999C3.7654 2.3999 2.7334 3.4319 2.7334 4.7039C2.7334 5.9759 3.7654 7.0319 5.0374 7.0319C6.3094 7.0319 7.3414 5.9759 7.3414 4.7039C7.3414 3.4319 6.3094 2.3999 5.0374 2.3999Z" fill="white"/>
</svg>
