<svg width="20" height="20" viewBox="0 0 20 20" fill="none" xmlns="http://www.w3.org/2000/svg">
<g id="Icon/language">
<path id="Vector" d="M9.99169 1.66663C5.39169 1.66663 1.66669 5.39996 1.66669 9.99996C1.66669 14.6 5.39169 18.3333 9.99169 18.3333C14.6 18.3333 18.3334 14.6 18.3334 9.99996C18.3334 5.39996 14.6 1.66663 9.99169 1.66663ZM15.7667 6.66663H13.3084C13.0417 5.62496 12.6584 4.62496 12.1584 3.69996C13.6917 4.22496 14.9667 5.29163 15.7667 6.66663ZM10 3.36663C10.6917 4.36663 11.2334 5.47496 11.5917 6.66663H8.40835C8.76669 5.47496 9.30835 4.36663 10 3.36663ZM3.55002 11.6666C3.41669 11.1333 3.33335 10.575 3.33335 9.99996C3.33335 9.42496 3.41669 8.86663 3.55002 8.33329H6.36669C6.30002 8.88329 6.25002 9.43329 6.25002 9.99996C6.25002 10.5666 6.30002 11.1166 6.36669 11.6666H3.55002ZM4.23335 13.3333H6.69169C6.95835 14.375 7.34169 15.375 7.84169 16.3C6.30835 15.775 5.03335 14.7166 4.23335 13.3333ZM6.69169 6.66663H4.23335C5.03335 5.28329 6.30835 4.22496 7.84169 3.69996C7.34169 4.62496 6.95835 5.62496 6.69169 6.66663ZM10 16.6333C9.30835 15.6333 8.76669 14.525 8.40835 13.3333H11.5917C11.2334 14.525 10.6917 15.6333 10 16.6333ZM11.95 11.6666H8.05002C7.97502 11.1166 7.91669 10.5666 7.91669 9.99996C7.91669 9.43329 7.97502 8.87496 8.05002 8.33329H11.95C12.025 8.87496 12.0834 9.43329 12.0834 9.99996C12.0834 10.5666 12.025 11.1166 11.95 11.6666ZM12.1584 16.3C12.6584 15.375 13.0417 14.375 13.3084 13.3333H15.7667C14.9667 14.7083 13.6917 15.775 12.1584 16.3ZM13.6334 11.6666C13.7 11.1166 13.75 10.5666 13.75 9.99996C13.75 9.43329 13.7 8.88329 13.6334 8.33329H16.45C16.5834 8.86663 16.6667 9.42496 16.6667 9.99996C16.6667 10.575 16.5834 11.1333 16.45 11.6666H13.6334Z" fill="#8B96A5"/>
</g>
</svg>
